<svg xmlns="http://www.w3.org/2000/svg" version="1.1" xmlns:xlink="http://www.w3.org/1999/xlink" xmlns:svgjs="http://svgjs.dev/svgjs" width="1000" height="623" viewBox="0 0 1000 623"><g transform="matrix(1,0,0,1,-0.6060606060606233,0.2522267206477409)"><svg viewBox="0 0 396 247" data-background-color="#4d331f" preserveAspectRatio="xMidYMid meet" height="623" width="1000" xmlns="http://www.w3.org/2000/svg" xmlns:xlink="http://www.w3.org/1999/xlink"><g id="tight-bounds" transform="matrix(1,0,0,1,0.2400000000000091,-0.09999999999999432)"><svg viewBox="0 0 395.52 247.2" height="247.2" width="395.52"><g><svg></svg></g><g><svg viewBox="0 0 395.52 247.2" height="247.2" width="395.52"><g transform="matrix(1,0,0,1,134.2964737550471,37.08)"><svg viewBox="0 0 126.92705248990579 173.04" height="173.04" width="126.92705248990579"><g><svg viewBox="0 0 126.92705248990579 173.04" height="173.04" width="126.92705248990579"><g><svg viewBox="0 0 126.92705248990579 173.04" height="173.04" width="126.92705248990579"><g><svg viewBox="0 0 126.92705248990579 173.04" height="173.04" width="126.92705248990579"><g id="textblocktransform"><svg viewBox="0 0 126.92705248990579 173.04" height="173.04" width="126.92705248990579" id="textblock"><g><svg viewBox="0 0 126.92705248990579 173.04" height="173.04" width="126.92705248990579"><g transform="matrix(1,0,0,1,0,0)"><svg width="126.92705248990579" viewBox="2.1500000953674316 -37.150001525878906 27.25 37.150001525878906" height="173.04" data-palette-color="#ffffff"><path d="M6.45-2.95L6.45-34.05 2.15-34.65 2.15-37.15 28.9-37.15 29.4-28.65 26.15-28.65 24.65-34.2 11.8-34.55 11.8-20.05 20.85-20.2 21.7-24.35 24.35-24.35 24.35-12.65 21.75-12.65 20.85-17 11.8-17.2 11.8-2.95 19.6-2.45 19.6 0 2.45 0 2.45-2.45 6.45-2.95Z" opacity="1" transform="matrix(1,0,0,1,0,0)" fill="#ffffff" class="undefined-text-0" data-fill-palette-color="primary" id="text-0"></path></svg></g></svg></g></svg></g></svg></g><g></g></svg></g></svg></g></svg></g><g mask="url(&quot;#61081d53-c315-4b50-a29a-ebf2213ffa11&quot;)"><g transform="matrix(4.378571428571428, 0, 0, 4.378571428571428, 89.21521027701242, 1)"><svg xmlns="http://www.w3.org/2000/svg" data-name="Glyph Icon" viewBox="7.210000038146973 4 49.58000183105469 56" x="0" y="0" height="56" width="49.58000183105469" class="icon-none" data-fill-palette-color="accent" id="none"><path d="M49.13 20.84l-16-9.26V4L55.7 17.05ZM32 50.52L16 41.26V22.74l16-9.26 16 9.26V41.26ZM30.91 11.58l-16 9.26L8.3 17.05 30.91 4ZM13.77 22.74V41.26L7.21 45.05V19Zm1.1 20.42l16 9.26V60L8.3 47Zm18.22 9.26l16-9.26L55.7 47 33.09 60ZM50.23 41.26V22.74L56.79 19v26.1Z" fill="#ffffff" data-fill-palette-color="accent"></path></svg></g></g></svg></g><defs><mask id="61081d53-c315-4b50-a29a-ebf2213ffa11"><rect width="640" height="400" fill="white"></rect><rect width="139.61975773889637" height="223.54137792" fill="black" y="11.829311039999993" x="127.9501211305518" id="transform-me"></rect></mask></defs></svg><rect width="395.52" height="247.2" fill="none" stroke="none" visibility="hidden"></rect></g></svg></g></svg>